<mxfile host="65bd71144e">
    <diagram id="ZGqyDgRsdWXZfH8mkyOq" name="Page-1">
        <mxGraphModel dx="1185" dy="703" grid="1" gridSize="10" guides="1" tooltips="1" connect="1" arrows="1" fold="1" page="1" pageScale="1" pageWidth="827" pageHeight="1169" math="0" shadow="0">
            <root>
                <mxCell id="0"/>
                <mxCell id="1" parent="0"/>
                <mxCell id="2" value="" style="verticalLabelPosition=bottom;shadow=0;dashed=0;align=center;html=1;verticalAlign=top;shape=mxgraph.electrical.opto_electronics.led_2;pointerEvents=1;" parent="1" vertex="1">
                    <mxGeometry x="315" y="403" width="100" height="70" as="geometry"/>
                </mxCell>
                <mxCell id="8" style="edgeStyle=orthogonalEdgeStyle;html=1;exitX=1;exitY=0.5;exitDx=0;exitDy=0;exitPerimeter=0;entryX=0;entryY=0.5;entryDx=0;entryDy=0;endArrow=none;endFill=0;rounded=0;startArrow=none;" parent="1" source="15" target="7" edge="1">
                    <mxGeometry relative="1" as="geometry"/>
                </mxCell>
                <mxCell id="37" style="edgeStyle=none;html=1;exitX=0;exitY=0.5;exitDx=0;exitDy=0;exitPerimeter=0;entryX=1;entryY=0.57;entryDx=0;entryDy=0;entryPerimeter=0;endArrow=none;endFill=0;" parent="1" source="3" target="2" edge="1">
                    <mxGeometry relative="1" as="geometry"/>
                </mxCell>
                <mxCell id="3" value="" style="pointerEvents=1;verticalLabelPosition=bottom;shadow=0;dashed=0;align=center;html=1;verticalAlign=top;shape=mxgraph.electrical.resistors.resistor_2;" parent="1" vertex="1">
                    <mxGeometry x="456" y="433" width="100" height="20" as="geometry"/>
                </mxCell>
                <mxCell id="6" value="220 Î©" style="text;html=1;align=center;verticalAlign=middle;resizable=0;points=[];autosize=1;strokeColor=none;fillColor=none;" parent="1" vertex="1">
                    <mxGeometry x="476" y="447" width="60" height="30" as="geometry"/>
                </mxCell>
                <mxCell id="33" style="edgeStyle=none;rounded=0;html=1;exitX=1;exitY=0.5;exitDx=0;exitDy=0;entryX=0.5;entryY=1;entryDx=0;entryDy=0;endArrow=none;endFill=0;" parent="1" source="7" target="26" edge="1">
                    <mxGeometry relative="1" as="geometry"/>
                </mxCell>
                <mxCell id="7" value="" style="pointerEvents=1;verticalLabelPosition=bottom;shadow=0;dashed=0;align=center;html=1;verticalAlign=top;shape=mxgraph.electrical.miscellaneous.batteryStack;rotation=-90;" parent="1" vertex="1">
                    <mxGeometry x="611" y="210" width="100" height="60" as="geometry"/>
                </mxCell>
                <mxCell id="23" style="edgeStyle=orthogonalEdgeStyle;rounded=0;html=1;exitX=1;exitY=0.88;exitDx=0;exitDy=0;entryX=1;entryY=0.5;entryDx=0;entryDy=0;endArrow=none;endFill=0;" parent="1" target="19" edge="1">
                    <mxGeometry relative="1" as="geometry">
                        <mxPoint x="521" y="92.88" as="sourcePoint"/>
                    </mxGeometry>
                </mxCell>
                <mxCell id="11" value="" style="shape=mxgraph.electrical.electro-mechanical.twoWaySwitch;aspect=fixed;elSwitchState=2;flipV=1;" parent="1" vertex="1">
                    <mxGeometry x="445" y="70" width="75" height="26" as="geometry"/>
                </mxCell>
                <mxCell id="28" style="rounded=0;html=1;exitX=1;exitY=0.12;exitDx=0;exitDy=0;entryX=0;entryY=0.5;entryDx=0;entryDy=0;endArrow=none;endFill=0;" parent="1" source="13" target="26" edge="1">
                    <mxGeometry relative="1" as="geometry"/>
                </mxCell>
                <mxCell id="13" value="" style="shape=mxgraph.electrical.electro-mechanical.twoWaySwitch;aspect=fixed;elSwitchState=2;flipV=1;" parent="1" vertex="1">
                    <mxGeometry x="451" y="169" width="75" height="26" as="geometry"/>
                </mxCell>
                <mxCell id="16" value="" style="edgeStyle=orthogonalEdgeStyle;html=1;exitX=1;exitY=0.5;exitDx=0;exitDy=0;exitPerimeter=0;entryX=0;entryY=0.5;entryDx=0;entryDy=0;endArrow=none;endFill=0;rounded=0;" parent="1" source="3" target="15" edge="1">
                    <mxGeometry relative="1" as="geometry">
                        <mxPoint x="556" y="443" as="sourcePoint"/>
                        <mxPoint x="662" y="378" as="targetPoint"/>
                    </mxGeometry>
                </mxCell>
                <mxCell id="22" style="edgeStyle=none;rounded=0;html=1;exitX=0.5;exitY=0;exitDx=0;exitDy=0;entryX=0.5;entryY=1;entryDx=0;entryDy=0;endArrow=none;endFill=0;" parent="1" source="15" target="19" edge="1">
                    <mxGeometry relative="1" as="geometry"/>
                </mxCell>
                <mxCell id="15" value="" style="ellipse;whiteSpace=wrap;html=1;aspect=fixed;strokeColor=#000000;" parent="1" vertex="1">
                    <mxGeometry x="602" y="438" width="10" height="10" as="geometry"/>
                </mxCell>
                <mxCell id="21" value="" style="edgeStyle=orthogonalEdgeStyle;rounded=0;html=1;exitX=1;exitY=0.88;exitDx=0;exitDy=0;entryX=0.5;entryY=0;entryDx=0;entryDy=0;endArrow=none;endFill=0;" parent="1" source="13" target="19" edge="1">
                    <mxGeometry relative="1" as="geometry">
                        <mxPoint x="526" y="152.88" as="sourcePoint"/>
                        <mxPoint x="606" y="350" as="targetPoint"/>
                    </mxGeometry>
                </mxCell>
                <mxCell id="19" value="" style="ellipse;whiteSpace=wrap;html=1;aspect=fixed;strokeColor=#000000;" parent="1" vertex="1">
                    <mxGeometry x="601" y="300" width="10" height="10" as="geometry"/>
                </mxCell>
                <mxCell id="24" value="5 v" style="text;html=1;align=center;verticalAlign=middle;resizable=0;points=[];autosize=1;strokeColor=none;fillColor=none;" parent="1" vertex="1">
                    <mxGeometry x="686" y="230" width="40" height="30" as="geometry"/>
                </mxCell>
                <mxCell id="25" value="Output" style="text;html=1;align=center;verticalAlign=middle;resizable=0;points=[];autosize=1;strokeColor=none;fillColor=none;" parent="1" vertex="1">
                    <mxGeometry x="335" y="480" width="60" height="30" as="geometry"/>
                </mxCell>
                <mxCell id="34" style="edgeStyle=orthogonalEdgeStyle;rounded=0;html=1;exitX=0.5;exitY=0;exitDx=0;exitDy=0;entryX=1;entryY=0.12;entryDx=0;entryDy=0;endArrow=none;endFill=0;" parent="1" source="26" target="11" edge="1">
                    <mxGeometry relative="1" as="geometry"/>
                </mxCell>
                <mxCell id="26" value="" style="ellipse;whiteSpace=wrap;html=1;aspect=fixed;strokeColor=#000000;" parent="1" vertex="1">
                    <mxGeometry x="656" y="167" width="10" height="10" as="geometry"/>
                </mxCell>
                <mxCell id="29" value="A" style="text;html=1;align=center;verticalAlign=middle;resizable=0;points=[];autosize=1;strokeColor=none;fillColor=none;" parent="1" vertex="1">
                    <mxGeometry x="468.5" y="96" width="30" height="30" as="geometry"/>
                </mxCell>
                <mxCell id="30" value="B" style="text;html=1;align=center;verticalAlign=middle;resizable=0;points=[];autosize=1;strokeColor=none;fillColor=none;" parent="1" vertex="1">
                    <mxGeometry x="468.5" y="195" width="30" height="30" as="geometry"/>
                </mxCell>
                <mxCell id="31" value="Fiedly Lewis&lt;br&gt;Unit#4-16&lt;br&gt;XOR Gates with a chip" style="text;html=1;align=left;verticalAlign=middle;resizable=0;points=[];autosize=1;strokeColor=none;fillColor=none;" parent="1" vertex="1">
                    <mxGeometry y="53" width="150" height="60" as="geometry"/>
                </mxCell>
                <mxCell id="32" value="A | B | Output&lt;br&gt;-------------------&lt;br&gt;&lt;div style=&quot;text-align: left;&quot;&gt;0&amp;nbsp; | 0 | 0&lt;/div&gt;&lt;div style=&quot;text-align: left;&quot;&gt;0&amp;nbsp; | 1 | 1&lt;/div&gt;&lt;div style=&quot;text-align: left;&quot;&gt;1&amp;nbsp; | 0 | 1&lt;/div&gt;&lt;div style=&quot;text-align: left;&quot;&gt;1&amp;nbsp; | 1 | 0&lt;/div&gt;" style="text;html=1;align=center;verticalAlign=middle;resizable=0;points=[];autosize=1;strokeColor=none;fillColor=none;" parent="1" vertex="1">
                    <mxGeometry y="132" width="100" height="100" as="geometry"/>
                </mxCell>
                <mxCell id="64" style="edgeStyle=none;html=1;exitX=0;exitY=0.25;exitDx=0;exitDy=0;exitPerimeter=0;entryX=0;entryY=0.5;entryDx=0;entryDy=0;endArrow=none;endFill=0;" edge="1" parent="1" source="63" target="13">
                    <mxGeometry relative="1" as="geometry"/>
                </mxCell>
                <mxCell id="65" style="edgeStyle=orthogonalEdgeStyle;html=1;exitX=0;exitY=0.75;exitDx=0;exitDy=0;exitPerimeter=0;entryX=0;entryY=0.5;entryDx=0;entryDy=0;endArrow=none;endFill=0;rounded=0;" edge="1" parent="1" source="63" target="11">
                    <mxGeometry relative="1" as="geometry"/>
                </mxCell>
                <mxCell id="67" style="edgeStyle=orthogonalEdgeStyle;rounded=0;html=1;exitX=1;exitY=0.5;exitDx=0;exitDy=0;exitPerimeter=0;entryX=0;entryY=0.57;entryDx=0;entryDy=0;entryPerimeter=0;endArrow=none;endFill=0;" edge="1" parent="1" source="63" target="2">
                    <mxGeometry relative="1" as="geometry"/>
                </mxCell>
                <mxCell id="63" value="" style="verticalLabelPosition=bottom;shadow=0;dashed=0;align=center;html=1;verticalAlign=top;shape=mxgraph.electrical.logic_gates.logic_gate;operation=xor;negating=1;negSize=0.15;rotation=90;" vertex="1" parent="1">
                    <mxGeometry x="150" y="201" width="100" height="60" as="geometry"/>
                </mxCell>
            </root>
        </mxGraphModel>
    </diagram>
</mxfile>